<mxfile host="app.diagrams.net" modified="2024-07-09T00:44:15.960Z" agent="Mozilla/5.0 (Linux; Android 10; K) AppleWebKit/537.36 (KHTML, like Gecko) Chrome/126.0.0.0 Mobile Safari/537.36" version="24.6.4" etag="Cvo02gprWgKXcZvI3S_x" type="github">
  <diagram name="Page-1" id="cA64CUFCiqjpwbCdz0mO">
    <mxGraphModel>
      <root>
        <mxCell id="0" />
        <mxCell id="1" parent="0" />
      </root>
    </mxGraphModel>
  </diagram>
</mxfile>
